<svg width="136" height="44" viewBox="0 0 136 44" fill="none" xmlns="http://www.w3.org/2000/svg">
<path opacity="0.86" d="M16.84 2.82H2.68V11.26H13.88V12.98H2.68V23.5H0.68V1.1H16.84V2.82ZM14.8803 23.5L24.1603 1.1H26.5203L35.8403 23.5H33.7203L30.8403 16.54H19.8803L17.0003 23.5H14.8803ZM20.5603 14.82H30.1603L25.3603 2.9L20.5603 14.82ZM46.5087 23.82C44.0021 23.82 41.9087 23.3667 40.2287 22.46C38.5487 21.5267 37.3887 20.22 36.7487 18.54L38.2687 17.22C38.7754 18.82 39.7621 20.0333 41.2287 20.86C42.6954 21.6867 44.4821 22.1 46.5887 22.1C47.9221 22.1 49.0954 21.94 50.1087 21.62C51.1221 21.3 51.9087 20.82 52.4687 20.18C53.0554 19.54 53.3487 18.7533 53.3487 17.82C53.3487 16.9933 53.1354 16.3267 52.7087 15.82C52.3087 15.3133 51.7221 14.9 50.9487 14.58C50.2021 14.26 49.3087 14.0067 48.2687 13.82L44.2687 12.98C43.0954 12.74 41.9887 12.42 40.9487 12.02C39.9354 11.5933 39.1087 11.0067 38.4687 10.26C37.8287 9.48667 37.5087 8.46 37.5087 7.18C37.5087 6.03333 37.8421 4.98 38.5087 4.02C39.2021 3.03333 40.2021 2.24667 41.5087 1.66C42.8154 1.07333 44.3621 0.779999 46.1487 0.779999C47.6154 0.779999 48.9221 0.953333 50.0687 1.3C51.2154 1.64667 52.2021 2.18 53.0287 2.9C53.8821 3.62 54.5621 4.54 55.0687 5.66L53.5087 6.98C53.1087 5.91333 52.5754 5.06 51.9087 4.42C51.2421 3.75333 50.4287 3.27333 49.4687 2.98C48.5354 2.66 47.4287 2.5 46.1487 2.5C44.0687 2.5 42.4421 2.95333 41.2687 3.86C40.0954 4.74 39.5087 5.82 39.5087 7.1C39.5087 7.98 39.7354 8.67333 40.1887 9.18C40.6687 9.68667 41.2954 10.0867 42.0687 10.38C42.8687 10.6733 43.7487 10.9133 44.7087 11.1L48.8687 11.98C50.1487 12.22 51.2687 12.5533 52.2287 12.98C53.2154 13.4067 53.9754 13.9933 54.5087 14.74C55.0687 15.46 55.3487 16.42 55.3487 17.62C55.3487 18.8733 54.9754 19.9667 54.2287 20.9C53.4821 21.8333 52.4421 22.5533 51.1087 23.06C49.8021 23.5667 48.2687 23.82 46.5087 23.82ZM76.0163 1.1H78.0163V23.5H76.0163V12.98H61.7363V23.5H59.7363V1.1H61.7363V11.26H76.0163V1.1ZM86.1612 1.1V23.5H84.1612V1.1H86.1612ZM101.736 23.82C99.5229 23.82 97.6029 23.3533 95.9763 22.42C94.3496 21.4867 93.0963 20.1667 92.2163 18.46C91.3363 16.7267 90.8963 14.6733 90.8963 12.3C90.8963 9.92667 91.3363 7.88667 92.2163 6.18C93.0963 4.44667 94.3496 3.11333 95.9763 2.18C97.6029 1.24667 99.5229 0.779999 101.736 0.779999C103.976 0.779999 105.896 1.24667 107.496 2.18C109.123 3.11333 110.376 4.44667 111.256 6.18C112.136 7.88667 112.576 9.92667 112.576 12.3C112.576 14.6733 112.136 16.7267 111.256 18.46C110.376 20.1667 109.123 21.4867 107.496 22.42C105.896 23.3533 103.976 23.82 101.736 23.82ZM101.736 22.1C103.55 22.1 105.11 21.7133 106.416 20.94C107.75 20.14 108.776 19.0067 109.496 17.54C110.216 16.0733 110.576 14.3267 110.576 12.3C110.576 10.2467 110.216 8.5 109.496 7.06C108.776 5.59333 107.75 4.47333 106.416 3.7C105.11 2.9 103.55 2.5 101.736 2.5C99.9496 2.5 98.3896 2.9 97.0563 3.7C95.7229 4.47333 94.6963 5.59333 93.9763 7.06C93.2563 8.5 92.8963 10.2467 92.8963 12.3C92.8963 14.3267 93.2563 16.0733 93.9763 17.54C94.6963 19.0067 95.7229 20.14 97.0563 20.94C98.3896 21.7133 99.9496 22.1 101.736 22.1ZM135.588 1.1V23.5H132.908L120.708 5.7L119.188 3.22H119.148L119.268 5.66V23.5H117.308V1.1H119.988L132.028 18.7L133.708 21.38H133.748L133.628 18.94V1.1H135.588ZM10.6798 26.06H11.3518V39.5H10.6798V32.948H1.34381V39.5H0.671813V26.06H1.34381V32.348H10.6798V26.06ZM11.7878 39.5L17.4518 26.06H18.2438L23.9318 39.5H23.2118L21.2918 34.964H14.4278L12.4838 39.5H11.7878ZM14.6678 34.388H21.0518L17.8598 26.708L14.6678 34.388ZM24.5584 39.5V26.06H29.7184C31.1104 26.06 32.2064 26.396 33.0064 27.068C33.8064 27.724 34.2064 28.628 34.2064 29.78C34.2064 30.964 33.8064 31.884 33.0064 32.54C32.2064 33.196 31.1104 33.524 29.7184 33.524H25.2304V39.5H24.5584ZM34.0384 39.5L29.8864 33.332L30.4624 33.044L34.8784 39.5H34.0384ZM25.2304 32.948H29.7184C30.9184 32.948 31.8544 32.676 32.5264 32.132C33.1984 31.572 33.5344 30.796 33.5344 29.804C33.5344 28.812 33.1984 28.036 32.5264 27.476C31.8544 26.916 30.9184 26.636 29.7184 26.636H25.2304V32.948ZM35.9743 39.5V26.06H36.9823L41.7823 37.34L42.3343 38.732H42.3583L42.9103 37.34L47.7103 26.06H48.7183V39.5H48.0703V28.532L48.1183 26.804H48.0943L42.6943 39.5H41.9983L36.5983 26.804H36.5743L36.6223 28.532V39.5H35.9743ZM56.6837 39.692C55.3717 39.692 54.2357 39.412 53.2757 38.852C52.3157 38.292 51.5717 37.492 51.0437 36.452C50.5317 35.412 50.2757 34.188 50.2757 32.78C50.2757 31.356 50.5317 30.132 51.0437 29.108C51.5717 28.068 52.3157 27.268 53.2757 26.708C54.2357 26.148 55.3717 25.868 56.6837 25.868C57.9957 25.868 59.1237 26.148 60.0677 26.708C61.0277 27.268 61.7717 28.068 62.2997 29.108C62.8277 30.132 63.0917 31.356 63.0917 32.78C63.0917 34.188 62.8277 35.412 62.2997 36.452C61.7717 37.492 61.0277 38.292 60.0677 38.852C59.1237 39.412 57.9957 39.692 56.6837 39.692ZM56.6837 39.116C57.8517 39.116 58.8597 38.86 59.7077 38.348C60.5717 37.82 61.2357 37.084 61.6997 36.14C62.1797 35.196 62.4197 34.076 62.4197 32.78C62.4197 31.468 62.1797 30.348 61.6997 29.42C61.2357 28.476 60.5717 27.748 59.7077 27.236C58.8597 26.708 57.8517 26.444 56.6837 26.444C55.5157 26.444 54.4997 26.708 53.6357 27.236C52.7717 27.748 52.1077 28.476 51.6437 29.42C51.1797 30.348 50.9477 31.468 50.9477 32.78C50.9477 34.076 51.1797 35.196 51.6437 36.14C52.1077 37.084 52.7717 37.82 53.6357 38.348C54.4997 38.86 55.5157 39.116 56.6837 39.116ZM75.2747 26.06V39.5H74.3627L66.0107 27.884L65.2667 26.804H65.2427L65.2667 28.1V39.5H64.6187V26.06H65.5307L73.7387 37.46L74.6267 38.756H74.6507L74.6267 37.46V26.06H75.2747ZM80.8421 34.292L75.9221 26.06H76.7141L79.4021 30.644L81.1781 33.692L82.9781 30.644L85.6901 26.06H86.4581L81.5141 34.292V39.5H80.8421V34.292ZM94.4984 43.8C93.9384 43.8 93.4118 43.72 92.9184 43.56C92.4251 43.4133 91.9851 43.2 91.5984 42.92C91.2251 42.64 90.9118 42.3 90.6584 41.9C90.4184 41.5 90.2518 41.0467 90.1584 40.54L91.1384 40.2C91.3118 41.08 91.6851 41.7533 92.2584 42.22C92.8451 42.6867 93.6251 42.92 94.5984 42.92C95.1984 42.92 95.7451 42.8133 96.2384 42.6C96.7451 42.3867 97.1784 42.0267 97.5384 41.52C97.9118 41.0133 98.1918 40.3267 98.3784 39.46L99.0184 36.7L99.1184 36.8C98.8384 37.5333 98.3584 38.1333 97.6784 38.6C97.0118 39.0533 96.2318 39.28 95.3384 39.28C94.5651 39.28 93.8718 39.1 93.2584 38.74C92.6451 38.3667 92.1651 37.8533 91.8184 37.2C91.4718 36.5333 91.2984 35.7667 91.2984 34.9C91.2984 34.1133 91.4118 33.38 91.6384 32.7C91.8784 32.02 92.2184 31.4267 92.6584 30.92C93.0984 30.4133 93.6251 30.02 94.2384 29.74C94.8518 29.4467 95.5384 29.3 96.2984 29.3C97.1251 29.3 97.8184 29.4867 98.3784 29.86C98.9518 30.22 99.3784 30.72 99.6584 31.36C99.9384 31.9867 100.038 32.7 99.9584 33.5L99.7584 33.48L100.678 29.5H101.678L99.3184 39.62C99.0918 40.6067 98.7518 41.4067 98.2984 42.02C97.8451 42.6333 97.2984 43.08 96.6584 43.36C96.0318 43.6533 95.3118 43.8 94.4984 43.8ZM95.5784 38.42C96.3784 38.42 97.0718 38.2 97.6584 37.76C98.2451 37.32 98.6918 36.74 98.9984 36.02C99.3184 35.2867 99.4784 34.4867 99.4784 33.62C99.4784 32.86 99.3384 32.2267 99.0584 31.72C98.7918 31.2 98.4184 30.8133 97.9384 30.56C97.4584 30.2933 96.9251 30.16 96.3384 30.16C95.5118 30.16 94.7918 30.3733 94.1784 30.8C93.5784 31.2267 93.1118 31.8 92.7784 32.52C92.4584 33.2267 92.2984 34.02 92.2984 34.9C92.2984 35.98 92.5918 36.84 93.1784 37.48C93.7784 38.1067 94.5784 38.42 95.5784 38.42ZM105.611 39.68C104.811 39.68 104.131 39.5133 103.571 39.18C103.024 38.8467 102.644 38.36 102.431 37.72C102.218 37.08 102.211 36.3133 102.411 35.42L103.791 29.5H104.791L103.431 35.42C103.164 36.5133 103.258 37.3533 103.711 37.94C104.178 38.5133 104.884 38.8 105.831 38.8C106.538 38.8 107.158 38.6467 107.691 38.34C108.224 38.0333 108.664 37.6 109.011 37.04C109.371 36.48 109.631 35.84 109.791 35.12L111.091 29.5H112.091L109.771 39.5H108.891L109.391 37L109.551 37.06C109.244 37.8733 108.744 38.5133 108.051 38.98C107.358 39.4467 106.544 39.68 105.611 39.68ZM115.432 27.56C115.206 27.56 115.019 27.4933 114.872 27.36C114.739 27.2133 114.672 27.0333 114.672 26.82C114.672 26.5267 114.759 26.3 114.932 26.14C115.106 25.9667 115.312 25.88 115.552 25.88C115.779 25.88 115.959 25.9533 116.092 26.1C116.239 26.2333 116.312 26.4067 116.312 26.62C116.312 26.9 116.226 27.1267 116.052 27.3C115.892 27.4733 115.686 27.56 115.432 27.56ZM115.352 29.5L113.032 39.5H112.032L114.352 29.5H115.352ZM119.765 39.68C118.952 39.68 118.245 39.4933 117.645 39.12C117.045 38.7333 116.579 38.2067 116.245 37.54C115.925 36.86 115.765 36.0867 115.765 35.22C115.765 34.3933 115.885 33.6267 116.125 32.92C116.365 32.2 116.712 31.5733 117.165 31.04C117.619 30.4933 118.159 30.0667 118.785 29.76C119.412 29.4533 120.105 29.3 120.865 29.3C121.559 29.3 122.165 29.4267 122.685 29.68C123.205 29.9333 123.619 30.3 123.925 30.78C124.232 31.2467 124.412 31.8133 124.465 32.48L126.205 24.9H127.205L123.825 39.5H122.945L123.385 37.34C123.052 38.02 122.572 38.58 121.945 39.02C121.332 39.46 120.605 39.68 119.765 39.68ZM120.005 38.82C120.592 38.82 121.132 38.68 121.625 38.4C122.119 38.1067 122.539 37.7133 122.885 37.22C123.245 36.7267 123.525 36.1667 123.725 35.54C123.925 34.9 124.025 34.24 124.025 33.56C124.025 32.8 123.885 32.1733 123.605 31.68C123.325 31.1733 122.952 30.7933 122.485 30.54C122.019 30.2867 121.492 30.16 120.905 30.16C120.292 30.16 119.732 30.2867 119.225 30.54C118.719 30.7933 118.279 31.1467 117.905 31.6C117.532 32.0533 117.245 32.5867 117.045 33.2C116.845 33.8133 116.745 34.4867 116.745 35.22C116.745 35.98 116.879 36.6333 117.145 37.18C117.425 37.7133 117.812 38.12 118.305 38.4C118.799 38.68 119.365 38.82 120.005 38.82ZM130.878 39.68C129.971 39.68 129.191 39.48 128.538 39.08C127.884 38.68 127.391 38.14 127.058 37.46C126.724 36.7667 126.558 36.0067 126.558 35.18C126.558 34.14 126.758 33.1733 127.158 32.28C127.558 31.3867 128.144 30.6733 128.918 30.14C129.691 29.5933 130.624 29.32 131.718 29.32C132.518 29.32 133.198 29.4933 133.758 29.84C134.331 30.1867 134.771 30.66 135.078 31.26C135.384 31.8467 135.538 32.52 135.538 33.28C135.538 33.48 135.524 33.6933 135.498 33.92C135.471 34.1467 135.424 34.3733 135.358 34.6H127.078V33.74H134.898L134.478 34.06C134.504 33.9267 134.524 33.7933 134.538 33.66C134.551 33.5267 134.558 33.3933 134.558 33.26C134.558 32.6733 134.444 32.1533 134.218 31.7C133.991 31.2333 133.658 30.8667 133.218 30.6C132.791 30.32 132.271 30.18 131.658 30.18C130.978 30.18 130.378 30.32 129.858 30.6C129.351 30.8667 128.924 31.24 128.578 31.72C128.231 32.1867 127.971 32.72 127.798 33.32C127.638 33.92 127.558 34.5467 127.558 35.2C127.558 35.9067 127.698 36.5333 127.978 37.08C128.258 37.6133 128.651 38.04 129.158 38.36C129.678 38.6667 130.284 38.82 130.978 38.82C131.738 38.8067 132.384 38.6333 132.918 38.3C133.464 37.9533 133.898 37.5133 134.218 36.98L135.018 37.5C134.738 37.9267 134.391 38.3067 133.978 38.64C133.578 38.9733 133.118 39.2333 132.598 39.42C132.078 39.5933 131.504 39.68 130.878 39.68Z" fill="white"/>
</svg>
