<svg width="20" height="16" viewBox="0 0 20 16" fill="none" xmlns="http://www.w3.org/2000/svg">
<path d="M19.6094 5.46094C19.7656 5.34375 20 5.46094 20 5.65625V13.625C20 14.6797 19.1406 15.5 18.125 15.5H1.875C0.820312 15.5 0 14.6797 0 13.625V5.65625C0 5.46094 0.195312 5.34375 0.351562 5.46094C1.25 6.16406 2.38281 7.02344 6.36719 9.91406C7.1875 10.5 8.59375 11.7891 10 11.7891C11.3672 11.7891 12.8125 10.5 13.5938 9.91406C17.5781 7.02344 18.7109 6.16406 19.6094 5.46094ZM10 10.5C9.0625 10.5391 7.77344 9.36719 7.10938 8.89844C1.91406 5.14844 1.52344 4.79688 0.351562 3.85938C0.117188 3.70312 0 3.42969 0 3.11719V2.375C0 1.35938 0.820312 0.5 1.875 0.5H18.125C19.1406 0.5 20 1.35938 20 2.375V3.11719C20 3.42969 19.8438 3.70312 19.6094 3.85938C18.4375 4.79688 18.0469 5.14844 12.8516 8.89844C12.1875 9.36719 10.8984 10.5391 10 10.5Z" fill="white"/>
</svg>
